<svg width="1200" height="288" viewBox="0 0 1200 288" fill="none" xmlns="http://www.w3.org/2000/svg">
<path d="M768.54 116.28V32.048H814.29V262.725H773.457C773.029 255.242 772.602 247.973 772.174 240.704L770.678 239.636C770.25 240.491 770.036 241.56 769.395 242.415C759.347 254.387 746.306 261.442 731.127 264.221C715.52 267.214 700.128 266.787 685.163 261.014C657.156 250.539 640.267 230.015 634.067 201.154C629.15 178.92 631.074 157.114 641.764 136.59C654.163 112.646 674.046 98.3221 700.769 94.2601C719.369 91.2671 737.327 93.8326 753.575 103.667C758.278 106.446 762.126 110.722 766.402 114.57C766.829 114.997 767.471 115.425 768.54 116.494V116.28ZM768.54 179.775C768.54 153.479 748.657 133.597 721.934 133.383C696.707 133.383 675.756 154.121 675.756 179.561C675.756 205.002 696.066 225.953 721.72 225.953C749.299 225.953 768.54 206.071 768.54 179.775Z" fill="white"/>
<path d="M571.636 118.846C572.063 111.363 572.491 104.094 572.705 96.6118H612.683V262.938H572.705C572.277 255.67 571.85 248.401 571.422 240.491C570.139 241.56 569.498 241.987 569.07 242.629C558.381 255.883 544.057 262.511 527.596 265.076C510.706 267.642 494.245 266.573 478.638 259.304C454.053 247.973 438.874 228.732 433.102 202.65C427.329 176.141 430.322 150.914 445.929 128.039C458.756 109.225 476.928 98.3221 499.376 94.6877C517.334 91.9085 534.437 94.2601 550.685 102.384C557.953 106.018 564.153 110.936 569.07 117.349C569.498 117.777 569.926 118.204 570.353 118.632C570.353 118.632 570.781 118.632 571.636 119.059V118.846ZM567.146 179.775C567.146 153.693 547.905 134.238 521.823 134.025C496.81 134.025 476.287 154.334 476.287 179.561C476.287 204.574 496.383 225.312 520.968 225.098C549.616 225.098 566.933 204.788 567.146 179.561V179.775Z" fill="white"/>
<path d="M1077.25 193.03H951.752C952.393 205.857 964.365 219.967 978.689 224.67C988.737 228.091 998.785 228.091 1008.83 225.312C1019.1 222.319 1026.58 216.119 1032.14 206.926C1045.6 210.988 1058.86 215.05 1072.33 219.112C1069.34 226.808 1065.06 233.65 1059.5 239.422C1045.82 253.959 1028.93 262.083 1009.26 264.862C988.523 267.642 968.641 265.718 950.042 255.67C925.67 242.629 911.346 222.105 907.07 194.74C903.65 173.361 907.07 152.838 918.187 134.025C931.87 111.363 952.179 98.3221 978.048 94.4739C996.433 91.6947 1014.18 93.405 1031.07 101.315C1054.16 112.218 1068.05 130.818 1074.47 155.19C1077.46 166.734 1078.1 178.492 1077.46 190.464C1077.46 191.32 1077.25 191.961 1077.03 193.244L1077.25 193.03ZM1033.63 162.245C1030.43 147.066 1015.67 132.1 993.654 131.887C972.276 131.887 955.6 147.279 952.393 162.245H1033.63Z" fill="white"/>
<path d="M303.975 262.938V218.471C305.686 218.471 307.182 218.471 308.679 218.471C317.017 218.471 325.354 218.684 333.692 216.333C354.002 210.56 361.912 198.375 363.836 179.134C364.477 172.293 364.477 165.451 364.477 158.61C364.477 117.777 364.477 76.9434 364.477 36.11V32.2618H411.724C411.724 32.9031 411.724 33.7583 411.724 34.3996C411.724 82.288 411.724 129.963 411.51 177.851C411.51 194.954 407.876 211.416 398.897 226.381C390.346 240.491 377.518 249.042 362.553 255.242C346.305 261.869 329.416 263.366 312.099 263.366C309.534 263.366 306.755 263.366 303.762 263.366L303.975 262.938Z" fill="white"/>
<path d="M1142.02 262.938H1096.27V96.6118H1133.9C1134.96 103.667 1135.82 110.722 1136.89 117.991C1137.32 117.991 1137.53 118.418 1137.96 118.418C1142.45 110.722 1147.79 103.881 1156.13 100.46C1164.25 97.2532 1173.02 96.6118 1182 96.398V142.79C1177.51 142.79 1173.02 142.362 1168.74 142.79C1155.7 144.073 1146.94 151.555 1144.16 164.169C1142.88 169.941 1142.23 176.141 1142.23 182.127C1142.23 207.781 1142.23 233.65 1142.23 259.304V262.938H1142.02Z" fill="white"/>
<path d="M886.979 262.938H841.656V96.398H886.979V262.938Z" fill="white"/>
<path d="M864.31 76.7296C879.423 76.7296 891.675 64.4779 891.675 49.3648C891.675 34.2516 879.423 22 864.31 22C849.197 22 836.945 34.2516 836.945 49.3648C836.945 64.4779 849.197 76.7296 864.31 76.7296Z" fill="white"/>
<path d="M864.318 76.7296C879.431 76.7296 891.683 64.4779 891.683 49.3648C891.683 34.2516 879.431 22 864.318 22C849.205 22 836.953 34.2516 836.953 49.3648C836.953 64.4779 849.205 76.7296 864.318 76.7296Z" fill="white"/>
<path d="M86.5582 262.938H30.332L184.259 32.048H240.485L86.5582 262.938Z" fill="white"/>
<path d="M64.5367 123.335C89.6859 123.335 110.073 102.948 110.073 77.7985C110.073 52.6493 89.6859 32.2618 64.5367 32.2618C39.3875 32.2618 19 52.6493 19 77.7985C19 102.948 39.3875 123.335 64.5367 123.335Z" fill="white"/>
<path d="M158.819 262.938V218.471C163.095 218.471 167.371 217.829 171.433 216.547C191.529 210.56 199.653 198.588 201.577 179.348C201.791 176.996 202.004 174.43 202.004 172.079H249.465C249.465 174.003 249.465 175.927 249.465 177.851C249.465 194.954 245.831 211.416 236.852 226.381C228.3 240.491 215.473 249.042 200.508 255.242C188.322 260.159 175.708 262.297 162.881 262.938H158.605H158.819Z" fill="white"/>
</svg>
