<svg width="288" height="288" viewBox="0 0 288 288" fill="none" xmlns="http://www.w3.org/2000/svg">
<path d="M96.5582 262.938H40.332L194.259 32.048H250.485L96.5582 262.938Z" fill="white"/>
<path d="M74.5367 123.335C99.6859 123.335 120.073 102.948 120.073 77.7985C120.073 52.6493 99.6859 32.2618 74.5367 32.2618C49.3875 32.2618 29 52.6493 29 77.7985C29 102.948 49.3875 123.335 74.5367 123.335Z" fill="white"/>
<path d="M168.819 262.938V218.471C173.095 218.471 177.371 217.829 181.433 216.547C201.529 210.56 209.653 198.588 211.577 179.348C211.791 176.996 212.004 174.43 212.004 172.079H259.465C259.465 174.003 259.465 175.927 259.465 177.851C259.465 194.954 255.831 211.416 246.852 226.381C238.3 240.491 225.473 249.042 210.508 255.242C198.322 260.159 185.708 262.297 172.881 262.938H168.605H168.819Z" fill="white"/>
</svg>
