<svg width="1200" height="378" viewBox="0 0 1200 378" fill="none" xmlns="http://www.w3.org/2000/svg">
<path d="M768.54 116.28V32.048H814.29V262.725H773.457C773.029 255.242 772.602 247.973 772.174 240.704L770.678 239.636C770.25 240.491 770.036 241.56 769.395 242.415C759.347 254.387 746.306 261.442 731.127 264.221C715.52 267.214 700.128 266.787 685.163 261.014C657.156 250.539 640.267 230.015 634.067 201.154C629.15 178.92 631.074 157.114 641.764 136.59C654.163 112.646 674.046 98.3221 700.769 94.2601C719.369 91.2671 737.327 93.8326 753.575 103.667C758.278 106.446 762.126 110.722 766.402 114.57C766.829 114.997 767.471 115.425 768.54 116.494V116.28ZM768.54 179.775C768.54 153.479 748.657 133.597 721.934 133.383C696.707 133.383 675.756 154.121 675.756 179.561C675.756 205.002 696.066 225.953 721.72 225.953C749.299 225.953 768.54 206.071 768.54 179.775Z" fill="black"/>
<path d="M571.636 118.846C572.063 111.363 572.491 104.094 572.705 96.6118H612.683V262.938H572.705C572.277 255.67 571.85 248.401 571.422 240.491C570.139 241.56 569.498 241.987 569.07 242.629C558.381 255.883 544.057 262.511 527.596 265.076C510.706 267.642 494.245 266.573 478.638 259.304C454.053 247.973 438.874 228.732 433.102 202.65C427.329 176.141 430.322 150.914 445.929 128.039C458.756 109.225 476.928 98.3221 499.376 94.6877C517.334 91.9085 534.437 94.2601 550.685 102.384C557.953 106.018 564.153 110.936 569.07 117.349C569.498 117.777 569.926 118.204 570.353 118.632C570.353 118.632 570.781 118.632 571.636 119.059V118.846ZM567.146 179.775C567.146 153.693 547.905 134.238 521.823 134.025C496.81 134.025 476.287 154.334 476.287 179.561C476.287 204.574 496.383 225.312 520.968 225.098C549.616 225.098 566.933 204.788 567.146 179.561V179.775Z" fill="black"/>
<path d="M1077.25 193.03H951.752C952.393 205.857 964.365 219.967 978.689 224.67C988.737 228.091 998.785 228.091 1008.83 225.312C1019.1 222.319 1026.58 216.119 1032.14 206.926C1045.6 210.988 1058.86 215.05 1072.33 219.112C1069.34 226.808 1065.06 233.65 1059.5 239.422C1045.82 253.959 1028.93 262.083 1009.26 264.862C988.523 267.642 968.641 265.718 950.042 255.67C925.67 242.629 911.346 222.105 907.07 194.74C903.65 173.361 907.07 152.838 918.187 134.025C931.87 111.363 952.179 98.3221 978.048 94.4739C996.433 91.6947 1014.18 93.405 1031.07 101.315C1054.16 112.218 1068.05 130.818 1074.47 155.19C1077.46 166.734 1078.1 178.492 1077.46 190.464C1077.46 191.32 1077.25 191.961 1077.03 193.244L1077.25 193.03ZM1033.63 162.245C1030.43 147.066 1015.67 132.1 993.654 131.887C972.276 131.887 955.6 147.279 952.393 162.245H1033.63Z" fill="black"/>
<path d="M303.975 262.938V218.471C305.686 218.471 307.182 218.471 308.679 218.471C317.017 218.471 325.354 218.684 333.692 216.333C354.002 210.56 361.912 198.375 363.836 179.134C364.477 172.293 364.477 165.451 364.477 158.61C364.477 117.777 364.477 76.9434 364.477 36.11V32.2618H411.724C411.724 32.9031 411.724 33.7583 411.724 34.3996C411.724 82.288 411.724 129.963 411.51 177.851C411.51 194.954 407.876 211.416 398.897 226.381C390.346 240.491 377.518 249.042 362.553 255.242C346.305 261.869 329.416 263.366 312.099 263.366C309.534 263.366 306.755 263.366 303.762 263.366L303.975 262.938Z" fill="black"/>
<path d="M1142.02 262.938H1096.27V96.6118H1133.9C1134.96 103.667 1135.82 110.722 1136.89 117.991C1137.32 117.991 1137.53 118.418 1137.96 118.418C1142.45 110.722 1147.79 103.881 1156.13 100.46C1164.25 97.2532 1173.02 96.6118 1182 96.398V142.79C1177.51 142.79 1173.02 142.362 1168.74 142.79C1155.7 144.073 1146.94 151.555 1144.16 164.169C1142.88 169.941 1142.23 176.141 1142.23 182.127C1142.23 207.781 1142.23 233.65 1142.23 259.304V262.938H1142.02Z" fill="black"/>
<path d="M886.979 262.938H841.656V96.398H886.979V262.938Z" fill="black"/>
<path d="M864.31 76.7296C879.423 76.7296 891.675 64.4779 891.675 49.3648C891.675 34.2516 879.423 22 864.31 22C849.197 22 836.945 34.2516 836.945 49.3648C836.945 64.4779 849.197 76.7296 864.31 76.7296Z" fill="black"/>
<path d="M864.318 76.7296C879.431 76.7296 891.683 64.4779 891.683 49.3648C891.683 34.2516 879.431 22 864.318 22C849.205 22 836.953 34.2516 836.953 49.3648C836.953 64.4779 849.205 76.7296 864.318 76.7296Z" fill="black"/>
<path d="M86.5582 262.938H30.332L184.259 32.048H240.485L86.5582 262.938Z" fill="black"/>
<path d="M64.5367 123.335C89.6859 123.335 110.073 102.948 110.073 77.7985C110.073 52.6493 89.6859 32.2618 64.5367 32.2618C39.3875 32.2618 19 52.6493 19 77.7985C19 102.948 39.3875 123.335 64.5367 123.335Z" fill="black"/>
<path d="M158.819 262.938V218.471C163.095 218.471 167.371 217.829 171.433 216.547C191.529 210.56 199.653 198.588 201.577 179.348C201.791 176.996 202.004 174.43 202.004 172.079H249.465C249.465 174.003 249.465 175.927 249.465 177.851C249.465 194.954 245.831 211.416 236.852 226.381C228.3 240.491 215.473 249.042 200.508 255.242C188.322 260.159 175.708 262.297 162.881 262.938H158.605H158.819Z" fill="black"/>
<path d="M39.2662 356C27.7215 356 19 347.378 19 336C19 324.622 27.8728 316 38.9133 316C47.3827 316 54.5414 320.561 57.0621 327.88L52.777 329.484C50.8612 324.221 45.5174 320.461 39.1149 320.461C30.6959 320.461 23.9909 327.328 23.9909 336C23.9909 344.822 30.6455 351.489 39.5182 351.489C45.8199 351.489 51.1133 347.88 53.029 342.867L57.415 344.321C54.7431 351.388 47.6852 356 39.2662 356Z" fill="black"/>
<path d="M98.6736 355.549L95.9513 347.228H79.3653L76.6429 355.549H71.6016L84.5579 316.451H90.7083L103.715 355.549H98.6736ZM80.8777 342.566H94.3884L87.6331 321.865L80.8777 342.566Z" fill="black"/>
<path d="M120.65 355.549V316.451H130.531C137.74 316.451 143.89 319.509 143.89 326.777C143.89 331.288 141.571 334.145 137.639 335.449C142.479 336.652 145.151 339.96 145.151 344.722C145.151 352.591 138.698 355.549 131.438 355.549H120.65ZM132.295 350.837C136.228 350.837 140.311 349.083 140.311 344.371C140.311 339.759 136.429 338.055 132.144 338.055H125.59V350.837H132.295ZM130.682 333.694C135.018 333.694 139.051 332.14 139.051 327.479C139.051 322.767 134.967 321.163 131.035 321.163H125.59V333.694H130.682Z" fill="black"/>
<path d="M163.038 355.549V316.451H167.979V355.549H163.038Z" fill="black"/>
<path d="M187.605 355.549V316.451H192.344L213.266 346.476V316.451H218.206V355.549H213.518L192.546 325.424V355.549H187.605Z" fill="black"/>
<path d="M237.871 355.549V316.451H259.347V321.163H242.811V333.444H257.431V338.155H242.811V350.837H259.347V355.549H237.871Z" fill="black"/>
<path d="M284.607 355.549V321.163H275.482V316.451H298.622V321.163H289.548V355.549H284.607Z" fill="black"/>
<path d="M339.436 355.549V316.451H349.972C362.576 316.451 372.053 323.82 372.053 336C372.053 348.381 362.424 355.499 349.972 355.499H344.376V355.549H339.436ZM344.376 350.837H350.678C360.408 350.837 367.062 344.822 367.062 336C367.062 327.178 360.408 321.163 350.678 321.163H344.376V350.837Z" fill="black"/>
<path d="M386.913 326.426C388.728 326.426 390.29 325.724 390.24 323.368V321.915H386.913V316.451H392.408V323.018C392.408 326.777 390.492 328.481 386.913 328.481V326.426Z" fill="black"/>
<path d="M410.724 355.549V316.451H432.2V321.163H415.664V333.444H430.284V338.155H415.664V350.837H432.2V355.549H410.724Z" fill="black"/>
<path d="M447.478 355.549L458.619 335.449L448.184 316.451H453.881L461.846 331.639L469.761 316.451H475.407L464.619 336.1L475.256 355.549H469.61L461.342 339.96L453.074 355.549H447.478Z" fill="black"/>
<path d="M492.055 355.549V316.451H503.398C510.657 316.451 516.959 319.659 516.959 327.93C516.959 335.649 510.556 339.459 503.398 339.459H496.995V355.549H492.055ZM496.995 334.747H503.498C508.288 334.747 512.018 332.541 512.018 327.88C512.018 323.168 508.288 321.113 503.498 321.113H496.995V334.747Z" fill="black"/>
<path d="M534.443 355.549V316.451H555.919V321.163H539.384V333.444H554.004V338.155H539.384V350.837H555.919V355.549H534.443Z" fill="black"/>
<path d="M574.222 355.549V316.451H585.565C592.825 316.451 599.127 319.659 599.127 327.93C599.127 334.095 594.993 337.805 589.75 339.008L600.639 355.549H594.993L584.507 339.459H579.163V355.549H574.222ZM579.163 334.747H585.666C590.455 334.747 594.186 332.541 594.186 327.88C594.186 323.168 590.455 321.113 585.666 321.113H579.163V334.747Z" fill="black"/>
<path d="M623.076 355.549V321.163H613.951V316.451H637.091V321.163H628.016V355.549H623.076Z" fill="black"/>
<path d="M654.569 355.549V316.451H659.509V355.549H654.569Z" fill="black"/>
<path d="M690.781 356C683.673 356 678.631 352.04 677.472 345.674L682.311 344.571C683.068 349.133 686.647 351.539 690.882 351.539C695.167 351.539 698.797 348.982 698.797 344.872C698.797 341.163 695.923 339.509 692.192 338.155L686.193 336.1C681.253 334.396 678.48 331.188 678.48 326.576C678.48 321.564 682.563 316 690.428 316C697.94 316 702.124 320.361 702.88 325.624L698.04 326.576C697.687 322.717 694.864 320.411 690.63 320.411C686.496 320.411 683.42 322.867 683.42 326.226C683.42 329.183 685.286 330.887 688.613 332.04L694.108 333.995C700.359 336.15 703.788 339.459 703.788 344.772C703.788 350.185 700.006 356 690.781 356Z" fill="black"/>
<path d="M721.721 355.549V316.451H743.197V321.163H726.661V333.444H741.281V338.155H726.661V350.837H743.197V355.549H721.721Z" fill="black"/>
<path d="M803.59 356C792.045 356 783.324 347.378 783.324 336C783.324 324.622 792.196 316 803.237 316C811.706 316 818.865 320.561 821.386 327.88L817.101 329.484C815.185 324.221 809.841 320.461 803.439 320.461C795.02 320.461 788.315 327.328 788.315 336C788.315 344.822 794.969 351.489 803.842 351.489C810.144 351.489 815.437 347.88 817.353 342.867L821.739 344.321C819.067 351.388 812.009 356 803.59 356Z" fill="black"/>
<path d="M858.285 356C847.043 356 838.069 347.779 838.069 335.95C838.069 324.421 846.892 316 858.285 316C869.83 316 878.602 324.421 878.602 335.95C878.602 347.779 869.679 356 858.285 356ZM858.336 351.489C867.208 351.489 873.56 344.772 873.56 335.95C873.56 327.228 867.208 320.461 858.336 320.461C849.412 320.461 843.06 327.228 843.06 335.95C843.06 344.772 849.412 351.489 858.336 351.489Z" fill="black"/>
<path d="M896.691 355.549V316.451H902.69L916.402 347.378L930.014 316.451H936.013V355.549H931.073V325.173L917.562 355.549H915.092L901.631 325.624V355.549H896.691Z" fill="black"/>
<path d="M955.67 355.549V316.451H967.013C974.273 316.451 980.575 319.659 980.575 327.93C980.575 335.649 974.172 339.459 967.013 339.459H960.611V355.549H955.67ZM960.611 334.747H967.114C971.903 334.747 975.634 332.541 975.634 327.88C975.634 323.168 971.903 321.113 967.114 321.113H960.611V334.747Z" fill="black"/>
<path d="M1005.02 355.549V321.163H995.891V316.451H1019.03V321.163H1009.96V355.549H1005.02Z" fill="black"/>
<path d="M1057.02 355.549L1054.3 347.228H1037.71L1034.99 355.549H1029.95L1042.9 316.451H1049.05L1062.06 355.549H1057.02ZM1039.22 342.566H1052.73L1045.98 321.865L1039.22 342.566Z" fill="black"/>
<path d="M1079 355.549V316.451H1088.88C1096.09 316.451 1102.24 319.509 1102.24 326.777C1102.24 331.288 1099.92 334.145 1095.99 335.449C1100.82 336.652 1103.5 339.96 1103.5 344.722C1103.5 352.591 1097.04 355.549 1089.78 355.549H1079ZM1090.64 350.837C1094.57 350.837 1098.66 349.083 1098.66 344.371C1098.66 339.759 1094.78 338.055 1090.49 338.055H1083.94V350.837H1090.64ZM1089.03 333.694C1093.36 333.694 1097.4 332.14 1097.4 327.479C1097.4 322.767 1093.31 321.163 1089.38 321.163H1083.94V333.694H1089.03Z" fill="black"/>
<path d="M1121.38 355.549V316.451H1126.33V350.837H1142.86V355.549H1121.38Z" fill="black"/>
<path d="M1160.52 355.549V316.451H1182V321.163H1165.46V333.444H1180.08V338.155H1165.46V350.837H1182V355.549H1160.52Z" fill="black"/>
</svg>
